<?xml version="1.0" standalone="no"?>
<!DOCTYPE svg PUBLIC "-//W3C//DTD SVG 20010904//EN"
 "http://www.w3.org/TR/2001/REC-SVG-20010904/DTD/svg10.dtd">
<svg version="1.0" xmlns="http://www.w3.org/2000/svg"
 width="1545.000000pt" height="1545.000000pt" viewBox="0 0 1545.000000 1545.000000"
 preserveAspectRatio="xMidYMid meet">
<metadata>
Created by potrace 1.11, written by Peter Selinger 2001-2013
</metadata>
<g transform="translate(0.000000,1545.000000) scale(0.100000,-0.100000)"
fill="#000000" stroke="none">
<path d="M8145 15354 c-1226 -217 -2694 -2019 -3528 -4329 -370 -1025 -582
-2061 -638 -3110 -14 -272 -6 -869 16 -1123 73 -864 252 -1588 576 -2339 507
-1173 1263 -2207 2045 -2793 376 -282 777 -461 1154 -516 159 -23 453 -15 595
16 489 105 920 404 1340 930 102 128 305 431 410 615 611 1063 1130 2765 1294
4250 84 755 93 1620 26 2450 -49 601 -147 1261 -270 1824 -48 216 -153 635
-203 806 -27 89 -31 97 -40 75 -5 -14 -62 -180 -127 -370 -65 -190 -120 -347
-122 -349 -1 -2 -57 19 -123 48 -301 130 -562 186 -925 198 -513 16 -897 -116
-1175 -403 -191 -198 -291 -421 -321 -719 -26 -256 38 -505 188 -735 130 -198
382 -459 700 -723 54 -45 149 -124 211 -176 473 -392 829 -863 1027 -1356 131
-326 178 -574 178 -930 -1 -886 -295 -1632 -865 -2191 -459 -451 -1073 -748
-1808 -873 -279 -48 -396 -56 -815 -56 -393 0 -522 7 -795 41 -420 52 -807
149 -1055 263 -47 22 -85 43 -85 48 0 17 487 1533 496 1542 1 2 54 -19 117
-47 278 -124 601 -209 957 -252 144 -18 553 -24 670 -11 515 59 904 295 1095
663 94 180 130 339 129 563 -2 175 -25 305 -80 449 -123 319 -356 593 -979
1151 -488 437 -758 771 -970 1200 -98 199 -143 318 -190 499 -60 234 -70 327
-69 641 0 237 4 302 23 425 96 627 343 1142 755 1567 532 551 1234 871 2144
980 115 14 228 18 522 18 397 0 510 -7 779 -51 85 -13 156 -22 159 -19 7 7
-102 251 -206 460 -350 704 -755 1222 -1180 1508 -100 68 -297 166 -392 197
-138 44 -250 60 -412 59 -84 0 -189 -7 -233 -15z"/>
</g>
</svg>
